<svg class="iq-icon" data-glyph="bolt" data-icon-source="lucide" data-lucide="zap" width="24" height="24" viewBox="0 0 24 24" fill="currentColor" stroke="none" aria-hidden="true" focusable="false"><path d="M14.235 1.022 C 13.812 1.065,13.461 1.191,13.115 1.423 C 12.818 1.622,3.501 10.960,3.364 11.197 C 2.989 11.841,2.904 12.573,3.125 13.260 C 3.381 14.057,4.007 14.663,4.835 14.916 C 5.051 14.981,5.091 14.983,6.925 14.993 C 8.441 15.001,8.792 15.010,8.780 15.042 C 8.660 15.356,7.114 19.753,7.071 19.905 C 7.025 20.066,7.011 20.206,7.011 20.505 C 7.011 20.844,7.021 20.930,7.092 21.164 C 7.405 22.196,8.204 22.863,9.272 22.985 C 9.781 23.042,10.392 22.898,10.834 22.616 C 10.974 22.527,12.274 21.247,15.715 17.810 C 18.294 15.233,20.463 13.044,20.534 12.945 C 20.804 12.568,20.957 12.130,20.989 11.642 C 21.041 10.858,20.679 10.036,20.075 9.561 C 19.823 9.363,19.436 9.163,19.152 9.084 C 18.923 9.019,18.856 9.017,17.065 9.001 L 15.215 8.985 16.052 6.615 C 16.512 5.312,16.912 4.157,16.941 4.050 C 16.977 3.912,16.992 3.746,16.991 3.480 C 16.989 3.162,16.977 3.064,16.908 2.836 C 16.693 2.124,16.252 1.590,15.619 1.277 C 15.180 1.059,14.714 0.973,14.235 1.022 M14.777 3.091 C 14.909 3.173,15.012 3.387,14.992 3.539 C 14.984 3.602,14.555 4.846,14.040 6.304 C 13.524 7.762,13.081 9.022,13.056 9.105 C 12.946 9.451,13.024 9.965,13.235 10.297 C 13.361 10.494,13.646 10.749,13.846 10.844 C 14.188 11.006,14.238 11.009,16.533 11.009 L 18.651 11.010 18.750 11.077 C 18.946 11.210,19.020 11.392,18.977 11.631 C 18.958 11.734,18.495 12.206,14.376 16.328 C 11.857 18.848,9.753 20.930,9.701 20.955 C 9.383 21.106,8.971 20.820,9.008 20.475 C 9.015 20.409,9.456 19.127,9.987 17.625 C 10.518 16.124,10.968 14.806,10.987 14.696 C 11.015 14.532,11.012 14.454,10.972 14.247 C 10.860 13.683,10.502 13.267,9.960 13.075 L 9.765 13.005 7.540 12.990 C 5.351 12.975,5.313 12.974,5.232 12.913 C 5.050 12.778,4.982 12.599,5.023 12.369 C 5.042 12.267,5.505 11.794,9.609 7.684 C 12.704 4.586,14.214 3.095,14.295 3.056 C 14.440 2.986,14.629 3.000,14.777 3.091 " stroke="none" fill-rule="evenodd" fill="currentColor"></path></svg>