<svg class="iq-icon" data-glyph="chart" data-icon-source="lucide" data-lucide="chart-no-axes-combined" width="24" height="24" viewBox="0 0 24 24" fill="currentColor" stroke="none" aria-hidden="true" focusable="false"><path d="M21.630 2.073 C 21.477 2.132,21.166 2.435,17.235 6.363 L 13.005 10.589 11.445 9.031 C 9.947 7.535,9.876 7.469,9.660 7.367 C 9.230 7.165,8.771 7.164,8.340 7.367 C 8.119 7.471,8.052 7.536,4.644 10.944 C 0.748 14.840,1.009 14.548,1.009 15.000 C 1.009 15.288,1.104 15.510,1.318 15.718 C 1.590 15.983,1.988 16.063,2.361 15.927 C 2.528 15.866,2.674 15.725,5.767 12.635 L 9.000 9.406 10.567 10.969 C 11.512 11.911,12.189 12.563,12.270 12.609 C 12.580 12.784,13.108 12.841,13.427 12.733 C 13.816 12.602,13.664 12.745,18.351 8.060 C 23.369 3.044,22.991 3.456,22.991 3.000 C 22.991 2.821,22.975 2.740,22.913 2.604 C 22.818 2.397,22.625 2.197,22.424 2.099 C 22.215 1.996,21.861 1.985,21.630 2.073 M19.725 9.702 C 19.457 9.787,19.225 9.974,19.110 10.200 C 18.987 10.441,18.987 10.460,18.996 15.945 L 19.005 21.225 19.086 21.398 C 19.131 21.494,19.234 21.637,19.318 21.718 C 19.797 22.184,20.602 22.034,20.902 21.424 L 20.985 21.255 20.993 15.891 C 21.001 9.949,21.015 10.360,20.806 10.075 C 20.556 9.735,20.109 9.580,19.725 9.702 M7.770 13.691 C 7.566 13.736,7.397 13.842,7.237 14.025 C 6.989 14.306,7.005 14.047,7.005 17.850 L 7.005 21.225 7.086 21.398 C 7.131 21.494,7.234 21.637,7.318 21.718 C 7.797 22.184,8.602 22.034,8.902 21.424 L 8.985 21.255 8.985 17.835 L 8.985 14.415 8.905 14.245 C 8.704 13.815,8.236 13.586,7.770 13.691 M15.720 13.678 C 15.448 13.761,15.170 14.014,15.073 14.266 C 15.017 14.410,15.015 14.536,15.015 17.835 L 15.015 21.255 15.098 21.424 C 15.398 22.034,16.203 22.184,16.682 21.718 C 16.766 21.637,16.869 21.494,16.914 21.398 L 16.995 21.225 16.995 17.820 L 16.995 14.415 16.911 14.235 C 16.803 14.006,16.581 13.793,16.362 13.711 C 16.193 13.648,15.872 13.632,15.720 13.678 M11.729 15.039 C 11.437 15.122,11.180 15.358,11.073 15.643 L 11.009 15.816 11.017 18.550 L 11.025 21.285 11.098 21.427 C 11.190 21.609,11.391 21.810,11.573 21.902 C 11.694 21.964,11.758 21.975,12.000 21.975 C 12.242 21.975,12.306 21.964,12.427 21.902 C 12.609 21.810,12.810 21.609,12.902 21.427 L 12.975 21.285 12.983 18.550 L 12.991 15.816 12.926 15.642 C 12.846 15.426,12.656 15.218,12.440 15.109 C 12.246 15.011,11.936 14.980,11.729 15.039 M3.790 17.490 C 3.536 17.543,3.319 17.694,3.171 17.920 C 2.998 18.185,2.996 18.205,3.006 19.800 L 3.015 21.255 3.098 21.424 C 3.398 22.034,4.203 22.184,4.682 21.718 C 4.766 21.637,4.869 21.494,4.914 21.398 L 4.995 21.225 4.995 19.740 C 4.995 18.264,4.995 18.254,4.927 18.086 C 4.847 17.889,4.601 17.638,4.403 17.550 C 4.248 17.482,3.961 17.454,3.790 17.490 " stroke="none" fill-rule="evenodd" fill="currentColor"></path></svg>