<svg class="iq-icon" data-glyph="ordered" data-icon-source="lucide" data-lucide="list-ordered" width="24" height="24" viewBox="0 0 24 24" fill="currentColor" stroke="none" aria-hidden="true" focusable="false"><path d="M3.762 3.033 C 3.444 3.108,3.135 3.403,3.042 3.720 C 2.886 4.256,3.247 4.877,3.766 4.965 C 4.015 5.007,3.990 4.835,3.990 6.512 L 3.990 8.010 3.901 8.010 C 3.624 8.010,3.245 8.276,3.099 8.574 C 3.027 8.721,3.015 8.781,3.015 9.000 C 3.015 9.218,3.027 9.280,3.098 9.424 C 3.207 9.646,3.422 9.844,3.643 9.927 C 3.815 9.991,3.846 9.992,5.052 9.984 L 6.285 9.975 6.427 9.902 C 6.609 9.810,6.810 9.609,6.902 9.427 C 6.964 9.306,6.975 9.242,6.975 9.000 C 6.975 8.758,6.964 8.694,6.903 8.574 C 6.754 8.282,6.443 8.054,6.148 8.019 L 6.000 8.002 6.000 5.928 C 5.999 3.663,6.002 3.699,5.824 3.440 C 5.719 3.288,5.575 3.172,5.377 3.081 C 5.246 3.020,5.184 3.015,4.560 3.010 C 4.189 3.007,3.830 3.017,3.762 3.033 M10.845 4.020 C 10.300 4.100,9.911 4.650,10.022 5.184 C 10.041 5.278,10.081 5.403,10.111 5.462 C 10.193 5.622,10.405 5.820,10.590 5.907 L 10.755 5.985 16.005 5.985 L 21.255 5.985 21.424 5.902 C 22.031 5.604,22.184 4.797,21.723 4.323 C 21.546 4.142,21.393 4.062,21.146 4.021 C 20.925 3.986,11.089 3.984,10.845 4.020 M10.673 11.055 C 10.126 11.257,9.853 11.885,10.088 12.398 C 10.193 12.628,10.420 12.847,10.637 12.928 L 10.804 12.991 16.045 12.983 L 21.285 12.975 21.427 12.902 C 21.609 12.810,21.810 12.609,21.902 12.427 C 21.964 12.306,21.975 12.242,21.975 12.000 C 21.975 11.758,21.964 11.694,21.903 11.574 C 21.809 11.390,21.623 11.204,21.435 11.104 L 21.285 11.025 16.035 11.019 C 11.638 11.015,10.767 11.021,10.673 11.055 M4.110 14.029 C 3.600 14.127,3.156 14.345,2.816 14.664 C 2.499 14.963,2.415 15.133,2.415 15.480 C 2.415 15.698,2.427 15.760,2.498 15.904 C 2.591 16.094,2.778 16.282,2.975 16.383 C 3.067 16.431,3.174 16.454,3.345 16.463 C 3.652 16.479,3.854 16.408,4.092 16.200 C 4.285 16.031,4.430 15.980,4.603 16.019 C 4.834 16.072,4.984 16.253,4.987 16.482 C 4.992 16.781,4.736 17.111,4.025 17.721 C 3.334 18.314,3.057 18.575,2.870 18.810 C 2.265 19.569,2.249 20.417,2.833 20.819 C 3.096 21.000,3.091 20.999,4.950 20.999 C 6.809 20.999,6.804 21.000,7.067 20.819 C 7.570 20.473,7.641 19.734,7.212 19.310 C 6.948 19.049,6.736 18.991,6.048 18.990 L 5.630 18.990 5.960 18.652 C 6.555 18.042,6.855 17.519,6.962 16.905 C 7.014 16.608,6.983 16.058,6.900 15.795 C 6.695 15.149,6.247 14.601,5.683 14.305 C 5.290 14.099,5.043 14.036,4.575 14.024 C 4.361 14.019,4.151 14.021,4.110 14.029 M10.762 18.032 C 10.588 18.074,10.434 18.163,10.294 18.304 C 9.724 18.873,10.035 19.833,10.836 19.981 C 10.942 20.001,12.782 20.008,16.112 20.003 L 21.225 19.995 21.398 19.914 C 22.174 19.550,22.191 18.489,21.428 18.103 L 21.255 18.015 16.065 18.010 C 13.094 18.008,10.827 18.017,10.762 18.032 " stroke="none" fill-rule="evenodd" fill="currentColor"></path></svg>